<svg width="50" height="50" viewBox="0 0 50 50" fill="none" xmlns="http://www.w3.org/2000/svg">
<circle cx="25" cy="25" r="25" fill="#82AE46"/>
<path d="M24.75 24.875C23.9212 24.875 23.1263 24.5458 22.5403 23.9597C21.9542 23.3737 21.625 22.5788 21.625 21.75C21.625 20.9212 21.9542 20.1263 22.5403 19.5403C23.1263 18.9542 23.9212 18.625 24.75 18.625C25.5788 18.625 26.3737 18.9542 26.9597 19.5403C27.5458 20.1263 27.875 20.9212 27.875 21.75C27.875 22.1604 27.7942 22.5667 27.6371 22.9459C27.4801 23.325 27.2499 23.6695 26.9597 23.9597C26.6695 24.2499 26.325 24.4801 25.9459 24.6371C25.5667 24.7942 25.1604 24.875 24.75 24.875ZM24.75 13C22.4294 13 20.2038 13.9219 18.5628 15.5628C16.9219 17.2038 16 19.4294 16 21.75C16 28.3125 24.75 38 24.75 38C24.75 38 33.5 28.3125 33.5 21.75C33.5 19.4294 32.5781 17.2038 30.9372 15.5628C29.2962 13.9219 27.0706 13 24.75 13Z" fill="white"/>
</svg>
