<svg xmlns="http://www.w3.org/2000/svg" xml:space="preserve" width="512" height="512" style="enable-background:new 0 0 512 512" viewBox="0 0 64 64"><g fill="#fdfdfd" data-name="Layer 97"><path d="m56.73 16.68-26-14a1.49 1.49 0 0 0-1.42 0l-16.26 8.75-9.76 5.25A1.49 1.49 0 0 0 2.5 18v28c0 .48-.09 1-.07 1.46a12.77 12.77 0 0 0 20.3 10.33l6.57 3.53a1.49 1.49 0 0 0 1.42 0l26-14a1.49 1.49 0 0 0 .8-1.32V18a1.49 1.49 0 0 0-.79-1.32zM30 5.7 52.85 18l-5.94 3.2-22-12.73zm9.84 20.5L16.73 12.85l5-2.71L45 23.58v10.26l-4.44 3V27.5a1.49 1.49 0 0 0-.71-1.3zM30 30.3 7.16 18l6.47-3.48 22 12.73zM5.5 20.51l23 12.39v24.59L25 55.63A12.77 12.77 0 0 0 5.5 39.17zm-.07 27a9.79 9.79 0 1 1 9.78 9.79 9.79 9.79 0 0 1-9.78-9.84zm26.08 10V32.9l6.09-3.28v10a1.51 1.51 0 0 0 2.34 1.24l7.43-5a1.47 1.47 0 0 0 .63-1.22V24l6.48-3.49V45.1z" data-original="#000000"/><path d="M19.85 43.33a1.51 1.51 0 0 0-2.12 0l-2.52 2.51-2.51-2.51a1.5 1.5 0 0 0-2.12 2.12L13.09 48l-2.51 2.52a1.51 1.51 0 0 0 0 2.12 1.53 1.53 0 0 0 1.06.44 1.49 1.49 0 0 0 1.06-.44l2.51-2.51 2.52 2.51a1.49 1.49 0 0 0 1.06.44 1.53 1.53 0 0 0 1.06-.44 1.51 1.51 0 0 0 0-2.12L17.34 48l2.51-2.51a1.51 1.51 0 0 0 0-2.16z" data-original="#000000"/></g></svg>