<svg width="50" height="50" viewBox="0 0 50 50" fill="none" xmlns="http://www.w3.org/2000/svg">
<circle cx="25" cy="25" r="25" fill="#82AE46"/>
<path d="M23.2389 13.1413C24.3684 12.6834 25.6316 12.6834 26.7611 13.1413L36.1344 16.9412C36.9599 17.2759 37.5 18.0777 37.5 18.9685V31.0344C37.5 31.9251 36.9599 32.7269 36.1344 33.0616L26.7611 36.8615C25.6316 37.3194 24.3684 37.3194 23.2389 36.8615L13.8656 33.0616C13.0401 32.7269 12.5 31.9251 12.5 31.0344V18.9685C12.5 18.0777 13.0401 17.2759 13.8656 16.9412L23.2389 13.1413ZM26.0566 14.8789C25.379 14.6042 24.621 14.6042 23.9434 14.8789L21.5512 15.8487L30.9597 19.5075L34.2962 18.2193L26.0566 14.8789ZM28.3639 20.5098L19.0184 16.8755L15.7379 18.2054L25.0016 21.808L28.3639 20.5098ZM14.375 31.0344C14.375 31.1616 14.4522 31.2761 14.5701 31.324L23.9434 35.1239C23.9829 35.14 24.0229 35.1551 24.0629 35.1692V23.4547L14.375 19.6872V31.0344ZM26.0566 35.1239L35.4299 31.324C35.5479 31.2761 35.625 31.1616 35.625 31.0344V19.7161L25.9379 23.4564V35.169C25.9778 35.1549 26.0174 35.1399 26.0566 35.1239Z" fill="white"/>
</svg>
